<?xml version="1.0" standalone="no"?>
<!DOCTYPE svg PUBLIC "-//W3C//DTD SVG 20010904//EN"
 "http://www.w3.org/TR/2001/REC-SVG-20010904/DTD/svg10.dtd">
<svg version="1.0" xmlns="http://www.w3.org/2000/svg"
 width="16.000000pt" height="16.000000pt" viewBox="0 0 16.000000 16.000000"
 preserveAspectRatio="xMidYMid meet">

<g transform="translate(0.000000,16.000000) scale(0.100000,-0.100000)"
fill="#000000" stroke="none">
<path d="M36 139 c-25 -20 -26 -22 -9 -34 14 -10 21 -11 32 -2 11 10 13 9 8
-3 -4 -8 -10 -23 -13 -32 -9 -25 -21 -22 -28 7 -8 30 -26 33 -26 4 0 -27 53
-79 80 -79 28 0 80 52 80 80 0 27 -52 80 -78 80 -11 0 -31 -9 -46 -21z m87
-39 c-25 -10 -30 -25 -11 -36 7 -4 8 -3 4 4 -5 8 0 12 13 12 14 0 19 -5 15
-15 -8 -19 -53 -19 -60 0 -10 26 4 45 33 44 27 0 27 -1 6 -9z"/>
</g>
</svg>
